<?xml version="1.0" encoding="UTF-8" standalone="no"?>
<svg
   width="64"
   height="64"
   version="1"
   id="svg10"
   sodipodi:docname="st.svg"
   inkscape:version="1.4.4 (dcaf3e7d9e, 2026-05-05)"
   xmlns:inkscape="http://www.inkscape.org/namespaces/inkscape"
   xmlns:sodipodi="http://sodipodi.sourceforge.net/DTD/sodipodi-0.dtd"
   xmlns="http://www.w3.org/2000/svg"
   xmlns:svg="http://www.w3.org/2000/svg">
  <defs
     id="defs10" />
  <sodipodi:namedview
     id="namedview10"
     pagecolor="#505050"
     bordercolor="#ffffff"
     borderopacity="1"
     inkscape:showpageshadow="0"
     inkscape:pageopacity="0"
     inkscape:pagecheckerboard="1"
     inkscape:deskcolor="#505050"
     inkscape:zoom="3.84"
     inkscape:cx="47.135417"
     inkscape:cy="31.640625"
     inkscape:window-width="1854"
     inkscape:window-height="1011"
     inkscape:window-x="0"
     inkscape:window-y="0"
     inkscape:window-maximized="1"
     inkscape:current-layer="svg10" />
  <rect
     style="opacity:0.2"
     width="56"
     height="50"
     x="4"
     y="8"
     rx="4.2"
     ry="4.167"
     id="rect1" />
  <rect
     style="fill:#4f4f4f"
     width="56"
     height="50"
     x="4"
     y="7"
     rx="4.2"
     ry="4.167"
     id="rect2" />
  <g
     style="opacity:0.2"
     id="g4">
    <rect
       width="16.763"
       height="5.588"
       x="-17.21"
       y="30.21"
       rx="1.397"
       ry="1.397"
       transform="matrix(0.72400601,-0.68979366,0.72400601,0.68979366,0,0)"
       id="rect3" />
    <rect
       width="16.763"
       height="5.588"
       x="19.03"
       y="-6.04"
       rx="1.397"
       ry="1.397"
       transform="matrix(0.72400601,0.68979366,0.72400601,-0.68979366,0,0)"
       id="rect4" />
  </g>
  <rect
     style="opacity:0.2;stroke-width:0.952197"
     width="15.413543"
     height="6"
     x="16.373207"
     y="-40.419979"
     rx="1.3600185"
     ry="1.5"
     id="rect5"
     transform="rotate(90)" />
  <rect
     style="fill:#a2a2a2;fill-opacity:1;stroke-width:0.952197"
     width="15.413543"
     height="6"
     x="16.373207"
     y="-41.419979"
     rx="1.3600185"
     ry="1.5"
     id="rect6"
     transform="rotate(90)" />
  <rect
     style="opacity:0.2"
     width="17"
     height="6"
     x="29.92"
     y="22.079969"
     rx="1.5"
     ry="1.5"
     id="rect5-5" />
  <rect
     style="fill:#ffffff"
     width="17"
     height="6"
     x="29.92"
     y="21.079969"
     rx="1.5"
     ry="1.5"
     id="rect6-6" />
  <rect
     style="fill:#a2a2a2"
     width="16.763"
     height="5.588"
     x="-16.49"
     y="29.48"
     rx="1.397"
     ry="1.397"
     transform="matrix(0.72401,-0.68979,0.72401,0.68979,0,0)"
     id="rect7" />
  <rect
     style="fill:#62c9ea"
     width="16.763"
     height="5.588"
     x="18.31"
     y="-5.31"
     rx="1.397"
     ry="1.397"
     transform="matrix(0.72401,0.68979,0.72401,-0.68979,0,0)"
     id="rect8" />
  <path
     style="opacity:0.1;fill:#ffffff"
     d="M 8.1992188 7 C 5.8724187 7 4 8.8596354 4 11.167969 L 4 12.167969 C 4 9.8596354 5.8724187 8 8.1992188 8 L 55.800781 8 C 58.127581 8 60 9.8596354 60 12.167969 L 60 11.167969 C 60 8.8596354 58.127581 7 55.800781 7 L 8.1992188 7 z"
     id="path8" />
  <path
     style="opacity:0.2"
     transform="matrix(0.72401,0.68979,0.72401,-0.68979,0,0)"
     d="M 29.481 -5.3097 L 29.48 -6.035 L 34.401 -6.0353 C 34.643 -6.0353 34.87 -5.9736 35.068 -5.8663 L 35.068 -4.0124 C 35.017 -4.7394 34.417 -5.3104 33.676 -5.3104 L 29.481 -5.3097 z"
     id="path9" />
  <rect
     style="fill:#62c9ea"
     width="16.763"
     height="5.588"
     x="18.31"
     y="-5.31"
     rx="1.397"
     ry="1.397"
     transform="matrix(0.72401,0.68979,0.72401,-0.68979,0,0)"
     id="rect9" />
  <rect
     style="fill:#ffffff"
     width="16.763"
     height="5.588"
     x="18.31"
     y="-5.31"
     rx="1.397"
     ry="1.397"
     transform="matrix(0.72401,0.68979,0.72401,-0.68979,0,0)"
     id="rect10" />
</svg>
